<svg width="128" height="128" viewBox="0 0 128 128" fill="none" xmlns="http://www.w3.org/2000/svg">
<rect x="1" y="0.94043" width="126" height="126" rx="63" fill="url(#paint0_linear_101_30120)"/>
<rect x="1" y="0.94043" width="126" height="126" rx="63" stroke="url(#paint1_linear_101_30120)"/>
<path d="M54 48.417C50.6758 48.417 47.3516 49.6904 44.8008 52.2412C39.6992 57.3428 39.6992 65.5381 44.8008 70.6396L47.8672 73.7061C47.8242 73.917 47.8008 74.1279 47.8008 74.3428C47.8008 75.1396 48.0977 75.8389 48.6992 76.4404L50.0977 77.8428C50.582 78.4209 51.3477 78.7139 52.125 78.7334C52.1758 79.4209 52.4609 80.1006 53 80.6396L54.4023 82.0381C54.9492 82.5889 55.5898 82.874 56.3086 82.9209C56.3281 83.6865 56.6211 84.3623 57.1992 84.9404L58.5977 86.3428C59.082 86.9209 59.8477 87.2139 60.6211 87.2334C60.6641 87.9521 60.9492 88.5889 61.5 89.1396L62.9023 90.5381C63.5 91.1396 64.1992 91.4404 65 91.4404C65.6992 91.4404 66.5 91.1396 67.0977 90.5381L70.0977 87.5381C70.6133 87.0693 70.8906 86.4521 70.9688 85.8037C71.6133 85.7256 72.1953 85.4443 72.6992 84.9404L74.5 83.1396C75.0391 82.6006 75.3242 81.9209 75.375 81.2334C76.1523 81.2139 76.918 80.9209 77.4023 80.3428L78.8008 78.9404C79.3633 78.4248 79.6484 77.7334 79.6875 77.0225C80.4219 76.9795 81.1445 76.6865 81.6992 76.0381L83.0977 74.6396C84.2148 73.6162 84.2812 71.9092 83.3203 70.7061C85.6445 68.3193 87 65.0771 87 61.6396C87 58.1396 85.6992 54.7412 83.1992 52.3389C78.0977 47.2412 69.8008 47.2412 64.6992 52.2412L63.9492 52.9912L63.1992 52.2412C60.6484 49.6904 57.3242 48.417 54 48.417ZM54 50.4404C56.8008 50.4404 59.6016 51.5381 61.8008 53.6396L62.5 54.3389L57.4023 59.4404C55.6016 61.2412 55.6016 64.1396 57.4023 65.9404C58.3008 66.8389 59.5 67.3428 60.6992 67.3428C61.8984 67.3428 63 66.9404 63.9023 66.0381L69.8945 60.0459L81.5977 71.9404C82 72.3389 82 72.9404 81.5977 73.3428L80.1992 74.7412C79.8008 75.1396 79.1992 75.1396 78.8008 74.7412L72.6992 68.7412C72.3008 68.3428 71.6992 68.3428 71.3008 68.7412C70.9023 69.1396 70.9023 69.7412 71.3008 70.1396L77.4023 76.1396C77.8008 76.5381 77.8008 77.1396 77.4023 77.5381L76 78.9404C75.6016 79.3389 75 79.3389 74.5977 78.9404L68.5977 72.9404C68.3867 72.7256 68.1172 72.6357 67.8477 72.6475C67.582 72.6357 67.3125 72.7256 67.0977 72.9404C66.6992 73.3389 66.6992 73.9404 67.0977 74.3428L73.0977 80.3428C73.3008 80.542 73.4023 80.7412 73.4023 81.0381C73.4023 81.3389 73.3008 81.542 73.0977 81.7412L71.3008 83.5381C71.0703 83.7686 70.7773 83.8506 70.4961 83.8193C70.3828 83.6514 70.25 83.4912 70.0977 83.3428L68.6992 81.9404C68.168 81.4092 67.4297 81.1436 66.6836 81.124C66.6445 80.4131 66.3594 79.6982 65.8008 79.1396L64.4023 77.7412C63.8867 77.1826 63.1992 76.8936 62.4922 76.8584C62.4727 76.0928 62.1797 75.4209 61.5977 74.8428L60.1992 73.4404C59.668 72.9092 58.9297 72.6436 58.1836 72.624C58.1445 71.9131 57.8594 71.1982 57.3008 70.6396L55.9023 69.2412C54.8008 68.042 52.8984 68.042 51.6992 69.2412L48.9492 71.9912L46.1992 69.2412C41.8984 64.9404 41.8984 57.9404 46.1992 53.6396C48.3984 51.5381 51.1992 50.4404 54 50.4404ZM73.9023 50.542C76.6992 50.542 79.5 51.6396 81.6992 53.7412L81.8008 53.8389C83.9023 55.9404 85 58.6396 85 61.6396C85 64.4717 83.9453 67.2021 81.9414 69.2842L70.6992 58.0381C70.6797 58.0225 70.6562 58.0146 70.6406 57.999C70.6211 57.9795 70.6172 57.9561 70.5977 57.9404C70.1992 57.542 69.5977 57.542 69.1992 57.9404L62.5 64.6396C61.5 65.6396 59.8008 65.6396 58.8008 64.6396C58.3008 64.1396 58 63.4404 58 62.7412C58 62.042 58.3008 61.3428 58.8008 60.8428L64.5508 55.0928L64.5977 55.1396L66.0977 53.7412C68.1992 51.6396 71.1016 50.542 73.9023 50.542ZM53.9023 70.2412C54.1016 70.2412 54.3984 70.3389 54.5977 70.5381L56 71.9404C56.3984 72.3389 56.3984 72.9404 56 73.3428L53 76.3428C52.6016 76.7412 52 76.7412 51.5977 76.3428L50.1992 74.9404C50 74.7412 49.9023 74.542 49.9023 74.2412C49.9023 73.9404 50 73.7412 50.1992 73.5381L53.1992 70.5381C53.3984 70.3389 53.6016 70.2412 53.9023 70.2412ZM58.0977 74.5381C58.3984 74.5381 58.6016 74.6396 58.8008 74.8428L60.1992 76.2412C60.3984 76.4404 60.5 76.6396 60.5 76.9404C60.5 77.2412 60.3984 77.4404 60.1992 77.6396L57.1992 80.6396C56.8008 81.0381 56.1992 81.0381 55.8008 80.6396L54.4023 79.2412C54 78.8428 54 78.2412 54.4023 77.8428L57.4023 74.8428C57.6016 74.6396 57.8008 74.5381 58.0977 74.5381ZM62.3398 78.7412C62.6016 78.7412 62.8516 78.8389 63 79.0381L64.4023 80.4404C64.8008 80.8389 64.8008 81.4404 64.4023 81.8428L61.4023 84.8428C61 85.2412 60.3984 85.2412 60 84.8428L58.5977 83.4404C58.3984 83.2412 58.3008 83.042 58.3008 82.7412C58.3008 82.4404 58.3984 82.2412 58.5977 82.0381L61.5977 79.0381C61.8008 78.8389 62.0742 78.7412 62.3398 78.7412ZM66.5977 83.0381C66.8984 83.0381 67.1016 83.1396 67.3008 83.3428L68.6992 84.7412C68.8984 84.9404 69 85.1396 69 85.4404C69 85.7412 68.8984 85.9404 68.6992 86.1396L65.6992 89.1396C65.3008 89.5381 64.6992 89.5381 64.3008 89.1396L62.9023 87.7412C62.6992 87.542 62.5977 87.3389 62.5977 87.0381C62.5977 86.7412 62.6992 86.542 62.9023 86.3428L65.9023 83.3428C66.1016 83.1396 66.3008 83.0381 66.5977 83.0381Z" fill="#170E2F"/>
<defs>
<linearGradient id="paint0_linear_101_30120" x1="1.5" y1="63.9404" x2="126.5" y2="63.9404" gradientUnits="userSpaceOnUse">
<stop stop-color="#FFBC0F"/>
<stop offset="1" stop-color="#FFE600"/>
</linearGradient>
<linearGradient id="paint1_linear_101_30120" x1="75.9048" y1="119.365" x2="75.9048" y2="7.33666" gradientUnits="userSpaceOnUse">
<stop stop-color="white"/>
<stop offset="1" stop-color="white" stop-opacity="0"/>
</linearGradient>
</defs>
</svg>
