<svg width="128" height="128" viewBox="0 0 128 128" fill="none" xmlns="http://www.w3.org/2000/svg">
<rect x="1" y="0.94043" width="126" height="126" rx="63" fill="url(#paint0_linear_101_30128)"/>
<rect x="1" y="0.94043" width="126" height="126" rx="63" stroke="url(#paint1_linear_101_30128)"/>
<path d="M27.8998 64.1343C25.4307 64.1343 23.4139 66.151 23.4139 68.6201V99.5407C23.4139 102.01 25.4307 104.027 27.8998 104.027H58.8204C61.2895 104.027 63.3063 102.01 63.3063 99.5407V68.6201C63.3063 66.151 61.2895 64.1343 58.8204 64.1343H27.8998ZM27.8998 65.6118H58.8204C60.4912 65.6118 61.8288 66.9493 61.8288 68.6201V99.5407C61.8288 101.212 60.4912 102.549 58.8204 102.549H27.8998C26.229 102.549 24.8914 101.212 24.8914 99.5407V68.6201C24.8914 66.9493 26.229 65.6118 27.8998 65.6118ZM44.0988 72.5855C43.9029 72.5856 43.715 72.6634 43.5765 72.8019C43.438 72.9405 43.3601 73.1284 43.3601 73.3243V87.3605C43.3601 88.9976 42.0422 90.3155 40.4051 90.3155C38.768 90.3155 37.4501 88.9976 37.4501 87.3605C37.4501 85.7234 38.768 84.4055 40.4051 84.4055C40.6091 84.4055 40.8025 84.4265 40.9938 84.4661C41.1013 84.4884 41.2125 84.4864 41.3192 84.4604C41.4259 84.4343 41.5254 84.3848 41.6105 84.3154C41.6957 84.246 41.7642 84.1585 41.8113 84.0593C41.8584 83.9601 41.8827 83.8516 41.8826 83.7418V80.755C41.8826 80.5731 41.8155 80.3975 41.6941 80.262C41.5727 80.1265 41.4055 80.0405 41.2247 80.0206C40.9625 79.9918 40.6896 79.973 40.4051 79.973C36.337 79.973 33.0176 83.2923 33.0176 87.3605C33.0176 91.4286 36.337 94.7479 40.4051 94.7479C44.4732 94.7479 47.7926 91.4286 47.7926 87.3605V80.4391C48.9134 81.0271 50.1345 81.4505 51.4863 81.4505C52.0367 81.4505 52.5817 81.3931 53.1153 81.2817C53.2813 81.2469 53.4302 81.1561 53.5372 81.0244C53.6441 80.8928 53.7025 80.7284 53.7026 80.5588V77.4855C53.7025 77.3672 53.674 77.2506 53.6195 77.1456C53.565 77.0406 53.486 76.9502 53.3893 76.882C53.2926 76.8139 53.1809 76.7699 53.0637 76.7539C52.9464 76.7379 52.8271 76.7503 52.7156 76.79C52.3044 76.9367 51.893 77.018 51.4863 77.018C49.4423 77.018 47.7926 75.3683 47.7926 73.3243C47.7926 73.1284 47.7147 72.9405 47.5762 72.8019C47.4376 72.6634 47.2498 72.5856 47.0538 72.5855H44.0988ZM44.8376 74.063H46.4651C46.8397 76.5459 48.9029 78.4955 51.4863 78.4955C51.7448 78.4955 51.9765 78.4018 52.2251 78.3613V79.8965C51.9791 79.925 51.7361 79.973 51.4863 79.973C49.9868 79.973 48.6164 79.4717 47.4982 78.6297C47.3885 78.5471 47.258 78.4967 47.1213 78.4842C46.9845 78.4717 46.847 78.4975 46.7241 78.5588C46.6013 78.6201 46.4979 78.7144 46.4257 78.8312C46.3534 78.9479 46.3151 79.0825 46.3151 79.2198V87.3605C46.3151 90.6281 43.6727 93.2704 40.4051 93.2704C37.1375 93.2704 34.4951 90.6281 34.4951 87.3605C34.4951 84.0928 37.1375 81.4505 40.4051 81.4505V82.928C37.9673 82.928 35.9726 84.9227 35.9726 87.3605C35.9726 89.7983 37.9673 91.793 40.4051 91.793C42.8429 91.793 44.8376 89.7983 44.8376 87.3605V74.063Z" fill="#170E2F"/>
<path d="M55.2016 21.147L55.2016 21.1469C54.2958 19.5948 53.4696 18.1759 52.868 17.1404C52.7218 16.8888 52.589 16.6599 52.4715 16.4573C52.5463 16.4561 52.6244 16.4549 52.7056 16.4538C53.6054 16.4413 54.876 16.4338 56.3459 16.4338H61.0439L64.1314 21.7253L64.1314 21.7253C65.0371 23.2775 65.8634 24.6963 66.4649 25.7318C66.6111 25.9834 66.7439 26.2123 66.8614 26.4149C66.7866 26.4161 66.7085 26.4173 66.6273 26.4184C65.7275 26.4309 64.4569 26.4384 62.987 26.4384H58.2891L55.2016 21.147ZM67.586 21.147L67.586 21.1469C66.6803 19.5948 65.854 18.1759 65.2525 17.1404C65.1046 16.8859 64.9704 16.6546 64.8519 16.4503C65.4607 16.44 66.2705 16.4338 67.1913 16.4338C70.0695 16.4338 70.857 16.4611 71.3435 16.5451L71.3436 16.5451C76.1068 17.3671 79.5142 21.3911 79.5142 26.1736V26.4384H75.2458H70.6735L67.586 21.147ZM45.3533 18.0072L45.3533 18.0072C46.3381 17.3586 47.5161 16.8689 48.6572 16.6327C48.6909 16.6258 48.7219 16.6195 48.7506 16.614C48.7803 16.6637 48.813 16.7187 48.8487 16.7787C49.0328 17.0885 49.2915 17.527 49.6001 18.0519C50.2171 19.1014 51.0316 20.4932 51.8435 21.8844C52.6554 23.2756 53.4643 24.6655 54.0701 25.7111C54.2209 25.9715 54.3591 26.2104 54.4815 26.4225C54.1766 26.4246 53.8203 26.4266 53.4202 26.4283C52.0187 26.4345 50.0847 26.4384 47.9568 26.4384H40.9302V26.1736C40.9302 22.845 42.5473 19.855 45.3533 18.0072ZM48.9969 16.5773C48.9969 16.5773 48.9959 16.5773 48.9941 16.5773C48.996 16.5773 48.997 16.5773 48.9969 16.5773ZM41.0415 46.8473L41.0415 46.8472C41.0008 46.6113 40.9694 46.1856 40.9519 44.8422C40.9346 43.5174 40.9302 41.3465 40.9302 37.6604V29.7709H60.2222H79.5142V37.6569C79.5142 41.4363 79.5103 43.6032 79.4924 44.9076C79.4743 46.2248 79.4417 46.6187 79.3962 46.8842C78.6896 51.0078 75.4879 54.1969 71.3286 54.9085C71.0808 54.9509 70.6324 54.9824 68.994 54.9966C67.3781 55.0106 64.653 55.0086 59.8997 54.9984L49.162 54.9753L48.4421 54.7844C47.0076 54.4043 45.9413 53.8993 44.8628 53.0995L44.8628 53.0995C42.8497 51.6069 41.4756 49.3631 41.0415 46.8473ZM58.49 34.3562L58.49 34.3561C57.206 33.7721 55.7721 34.2328 55.0763 35.4604L55.0763 35.4604L54.8778 35.8106L54.785 35.9743V36.1625V40.9654V45.7684V45.955L54.8764 46.1177L55.0748 46.4712L55.6971 46.1219L55.0748 46.4712C55.6302 47.4604 56.8477 48.0459 57.9537 47.7674L57.9538 47.7674C58.0622 47.7401 58.1842 47.6824 58.2494 47.6515C58.3411 47.6081 58.4553 47.5509 58.5856 47.4837C58.8472 47.3487 59.1926 47.1639 59.591 46.9467C60.3888 46.5118 61.4124 45.94 62.432 45.3617C63.4517 44.7835 64.4705 44.197 65.2586 43.7326C65.6522 43.5006 65.9914 43.2973 66.2454 43.1398C66.372 43.0614 66.4815 42.9918 66.5677 42.9344C66.6344 42.8899 66.7393 42.8193 66.8143 42.7481L66.8144 42.748C67.323 42.2657 67.5478 41.6729 67.5478 40.9654C67.5478 40.258 67.323 39.665 66.8143 39.1828L66.8142 39.1827C66.7445 39.1166 66.6442 39.0512 66.5957 39.0196L66.5899 39.0159C66.5163 38.9679 66.4207 38.9078 66.3085 38.8387C66.0832 38.6999 65.7772 38.516 65.418 38.3029C64.6989 37.8762 63.757 37.3265 62.8008 36.7743C60.9142 35.6846 58.8997 34.5426 58.49 34.3562Z" stroke="#170E2F" stroke-width="1.42725"/>
<path d="M74.8748 85.3386C73.5403 79.0405 73.5403 72.5325 74.8748 66.2343C75.0502 65.5947 75.389 65.0118 75.858 64.5429C76.3269 64.0739 76.9098 63.7351 77.5494 63.5597C87.7959 61.8622 98.2519 61.8622 108.498 63.5597C109.138 63.7351 109.721 64.0739 110.19 64.5429C110.659 65.0118 110.998 65.5947 111.173 66.2343C112.508 72.5325 112.508 79.0405 111.173 85.3386C110.998 85.9782 110.659 86.5612 110.19 87.0301C109.721 87.4991 109.138 87.8379 108.498 88.0132C98.2519 89.7111 87.7959 89.7111 77.5494 88.0132C76.9098 87.8379 76.3269 87.4991 75.858 87.0301C75.389 86.5612 75.0502 85.9782 74.8748 85.3386Z" stroke="#170E2F" stroke-width="1.7" stroke-linecap="round" stroke-linejoin="round"/>
<path d="M89.2031 81.5178L98.7552 75.7865L89.2031 70.0552V81.5178Z" stroke="#170E2F" stroke-width="1.7" stroke-linecap="round" stroke-linejoin="round"/>
<defs>
<linearGradient id="paint0_linear_101_30128" x1="1.5" y1="63.9404" x2="126.5" y2="63.9404" gradientUnits="userSpaceOnUse">
<stop stop-color="#FFBC0F"/>
<stop offset="1" stop-color="#FFE600"/>
</linearGradient>
<linearGradient id="paint1_linear_101_30128" x1="75.9048" y1="119.365" x2="75.9048" y2="7.33666" gradientUnits="userSpaceOnUse">
<stop stop-color="white"/>
<stop offset="1" stop-color="white" stop-opacity="0"/>
</linearGradient>
</defs>
</svg>
