<svg width="128" height="128" viewBox="0 0 128 128" fill="none" xmlns="http://www.w3.org/2000/svg">
<rect x="1" y="0.94043" width="126" height="126" rx="63" fill="url(#paint0_linear_101_30166)"/>
<rect x="1" y="0.94043" width="126" height="126" rx="63" stroke="url(#paint1_linear_101_30166)"/>
<g clip-path="url(#clip0_101_30166)">
<path d="M79.4249 86.6061C79.663 86.3534 79.8927 86.0944 80.1123 85.8298C82.22 83.29 83.4562 80.2171 83.4562 76.8884C83.4562 69.6952 82.078 51.4757 81.6504 45.3608C81.5549 43.9971 80.406 42.9333 79.0411 42.9333L73.6157 42.9333C72.1792 42.9333 70.9985 44.1127 70.9978 45.5493L70.9978 74.3217C70.9973 78.2401 67.8034 81.3918 63.867 81.3209C60.0216 81.2518 56.9973 77.9431 56.9973 74.0684V45.5513C56.9973 44.1137 55.817 42.9333 54.3794 42.9333L48.9733 42.9333C47.5975 42.9333 46.4442 44.015 46.3602 45.3898C46.1558 48.7399 45.7012 55.7589 45.2977 62.363C44.8943 68.9671 44.5408 75.098 44.5408 76.8884C44.5413 85.7654 53.3316 92.8175 63.9985 92.8175C70.2487 92.8175 75.854 90.3967 79.4249 86.6061ZM78.3615 85.6877C75.1414 89.0885 70.0932 91.3199 64.3485 91.408L64.3485 82.7034C68.8151 82.5162 72.3971 78.8344 72.3976 74.3217L72.3976 52.8927H73.403C73.45 52.8935 73.4966 52.8848 73.5401 52.8672C73.5836 52.8496 73.6231 52.8235 73.6563 52.7903C73.7056 52.741 73.739 52.6781 73.7524 52.6096C73.7657 52.5412 73.7582 52.4704 73.731 52.4062C73.7038 52.342 73.6581 52.2874 73.5996 52.2494C73.5412 52.2114 73.4727 52.1917 73.403 52.1928H72.3976L72.3986 45.5503C72.3989 44.8695 72.9357 44.3332 73.6157 44.3332L79.0411 44.3332C79.6897 44.3332 80.2103 44.8146 80.2553 45.4585C80.3652 47.0296 80.538 49.4187 80.7329 52.1928L78.3528 52.1928C78.3062 52.1919 78.26 52.2002 78.2167 52.2174C78.1734 52.2345 78.134 52.2602 78.1007 52.2928C78.0674 52.3254 78.041 52.3643 78.023 52.4072C78.0049 52.4501 77.9956 52.4962 77.9957 52.5428C77.9956 52.5893 78.0049 52.6354 78.023 52.6784C78.041 52.7213 78.0674 52.7602 78.1007 52.7928C78.134 52.8254 78.1734 52.851 78.2167 52.8682C78.26 52.8853 78.3062 52.8937 78.3528 52.8927L80.7793 52.8927C81.3391 60.8971 82.0564 71.8116 82.0564 76.8884C82.0564 79.8676 80.93 82.6561 78.9928 84.9772C78.791 85.2189 78.5805 85.4564 78.3615 85.6877ZM91.4715 71.5974C91.5051 71.5633 91.5313 71.5228 91.5486 71.4782C91.5659 71.4337 91.5739 71.386 91.5721 71.3383L91.3391 65.0457L94.6637 65.2671C94.7254 65.2713 94.787 65.2591 94.8424 65.2318C94.8978 65.2045 94.9449 65.163 94.9791 65.1115C95.0133 65.0601 95.0332 65.0005 95.0369 64.9389C95.0406 64.8772 95.0279 64.8157 95.0002 64.7605L90.0504 54.861C90.0161 54.793 89.9606 54.7381 89.8922 54.7045C89.8238 54.6709 89.7464 54.6606 89.6716 54.675C89.5968 54.6894 89.5288 54.7279 89.4778 54.7845C89.4268 54.8411 89.3957 54.9128 89.3892 54.9886L88.9164 60.6567L86.2153 61.1072C86.1613 61.1161 86.11 61.1376 86.0658 61.17C86.0215 61.2023 85.9855 61.2446 85.9606 61.2934C85.9356 61.3422 85.9225 61.3962 85.9223 61.451C85.922 61.5058 85.9347 61.5599 85.9592 61.6089L90.9089 71.5084C90.9338 71.5583 90.9703 71.6014 91.0152 71.6343C91.0602 71.6673 91.1123 71.689 91.1673 71.6977C91.2224 71.7064 91.2787 71.7018 91.3316 71.6844C91.3845 71.6669 91.4325 71.6371 91.4715 71.5974ZM90.8122 69.7489L86.7973 61.7201L89.2993 61.3025C89.376 61.2896 89.4463 61.2516 89.499 61.1943C89.5517 61.1371 89.5838 61.0639 89.5903 60.9863L89.9818 56.2889L94.1001 64.5256L90.9978 64.3197C90.9488 64.3164 90.8996 64.3235 90.8535 64.3405C90.8074 64.3574 90.7654 64.3839 90.7302 64.4182C90.695 64.4525 90.6674 64.4938 90.6492 64.5395C90.631 64.5851 90.6227 64.6341 90.6247 64.6832L90.8122 69.7489ZM63.6486 91.4099C53.7614 91.2585 45.9411 84.7407 45.9406 76.8884C45.9406 75.2921 46.2915 69.0476 46.6947 62.4471C46.9217 58.7316 47.0874 56.1447 47.2931 52.8927L48.6543 52.8927C48.7012 52.8935 48.7478 52.8848 48.7914 52.8672C48.8349 52.8496 48.8744 52.8235 48.9076 52.7903C48.9569 52.741 48.9903 52.6781 49.0036 52.6096C49.0169 52.5412 49.0095 52.4704 48.9823 52.4062C48.9551 52.342 48.9093 52.2874 48.8509 52.2494C48.7925 52.2114 48.724 52.1917 48.6543 52.1928H47.3357C47.4763 49.97 47.676 46.8029 47.7572 45.4739C47.7969 44.8243 48.3217 44.3332 48.9733 44.3332L54.3794 44.3332C55.0603 44.3332 55.5975 44.8704 55.5975 45.5513L55.5975 52.1928H50.6342C50.5876 52.1919 50.5414 52.2002 50.4981 52.2174C50.4548 52.2345 50.4154 52.2602 50.3821 52.2928C50.3489 52.3254 50.3224 52.3643 50.3044 52.4072C50.2864 52.4501 50.2771 52.4962 50.2771 52.5428C50.2771 52.5893 50.2864 52.6354 50.3044 52.6784C50.3224 52.7213 50.3489 52.7602 50.3821 52.7928C50.4154 52.8254 50.4548 52.851 50.4981 52.8682C50.5414 52.8853 50.5876 52.8937 50.6342 52.8927L55.5975 52.8927V74.0684C55.5975 78.6086 59.1103 82.5178 63.6486 82.7072L63.6486 91.4099ZM76.6262 52.7903C76.6755 52.741 76.7089 52.6781 76.7222 52.6096C76.7355 52.5412 76.7281 52.4704 76.7009 52.4062C76.6737 52.342 76.6279 52.2874 76.5695 52.2494C76.511 52.2114 76.4426 52.1917 76.3729 52.1928L75.3829 52.1928C75.3364 52.1919 75.2901 52.2002 75.2468 52.2174C75.2035 52.2346 75.1641 52.2602 75.1308 52.2928C75.0976 52.3254 75.0712 52.3643 75.0531 52.4072C75.0351 52.4501 75.0258 52.4962 75.0258 52.5428C75.0258 52.5893 75.0351 52.6354 75.0531 52.6784C75.0712 52.7213 75.0976 52.7602 75.1308 52.7928C75.1641 52.8254 75.2035 52.851 75.2468 52.8682C75.2901 52.8853 75.3364 52.8937 75.3829 52.8927H76.3729C76.4198 52.8935 76.4664 52.8848 76.5099 52.8672C76.5535 52.8496 76.593 52.8235 76.6262 52.7903ZM37.0292 71.5925C37.0528 71.5676 37.0727 71.5392 37.0881 71.5084L42.0379 61.6089C42.0656 61.5538 42.0783 61.4922 42.0746 61.4306C42.0709 61.369 42.051 61.3094 42.0168 61.2579C41.9826 61.2065 41.9355 61.165 41.8801 61.1377C41.8247 61.1104 41.7631 61.0982 41.7014 61.1024L38.3768 61.3237L38.6098 55.0312C38.6131 54.9511 38.5888 54.8723 38.541 54.808C38.4931 54.7437 38.4247 54.6977 38.347 54.6778C38.2694 54.6579 38.1873 54.6652 38.1144 54.6986C38.0415 54.7319 37.9823 54.7893 37.9466 54.861L32.9969 64.7605C32.9724 64.8096 32.9597 64.8637 32.96 64.9185C32.9602 64.9733 32.9733 65.0273 32.9983 65.0761C33.0232 65.1249 33.0592 65.1672 33.1035 65.1995C33.1477 65.2319 33.199 65.2534 33.253 65.2623L35.9541 65.7128L36.4269 71.3808C36.4326 71.448 36.4576 71.5121 36.4989 71.5655C36.5401 71.6188 36.5959 71.659 36.6596 71.6814C36.7232 71.7038 36.7919 71.7073 36.8575 71.6915C36.923 71.6757 36.9827 71.6414 37.0292 71.5925ZM37.0195 70.0805L36.628 65.3831C36.6215 65.3056 36.5894 65.2324 36.5367 65.1752C36.484 65.1179 36.4137 65.0799 36.337 65.067L33.835 64.6494L37.8499 56.6205L37.6624 61.6863C37.6604 61.7354 37.6687 61.7843 37.6869 61.83C37.7051 61.8757 37.7327 61.917 37.7679 61.9513C37.8031 61.9855 37.8451 62.012 37.8912 62.029C37.9373 62.046 37.9865 62.0531 38.0355 62.0498L41.1378 61.8439L37.0195 70.0805Z" fill="#170E2F" stroke="#170E2F" stroke-width="0.15"/>
</g>
<defs>
<linearGradient id="paint0_linear_101_30166" x1="1.5" y1="63.9404" x2="126.5" y2="63.9404" gradientUnits="userSpaceOnUse">
<stop stop-color="#FFBC0F"/>
<stop offset="1" stop-color="#FFE600"/>
</linearGradient>
<linearGradient id="paint1_linear_101_30166" x1="75.9048" y1="119.365" x2="75.9048" y2="7.33666" gradientUnits="userSpaceOnUse">
<stop stop-color="white"/>
<stop offset="1" stop-color="white" stop-opacity="0"/>
</linearGradient>
<clipPath id="clip0_101_30166">
<rect width="70" height="70" fill="white" transform="translate(29 29.4404)"/>
</clipPath>
</defs>
</svg>
