<svg width="128" height="128" viewBox="0 0 128 128" fill="none" xmlns="http://www.w3.org/2000/svg">
<rect x="1" y="0.94043" width="126" height="126" rx="63" fill="url(#paint0_linear_101_30155)"/>
<rect x="1" y="0.94043" width="126" height="126" rx="63" stroke="url(#paint1_linear_101_30155)"/>
<path d="M60 34.4404C59.7891 34.4404 59.5781 34.5068 59.4023 34.6396L56 37.1904L52.5977 34.6396C52.2578 34.3779 51.7891 34.374 51.4336 34.6162C51.0781 34.8584 50.9219 35.3037 51.0352 35.7139L54.7539 48.7217C53.7227 49.1943 53 50.2334 53 51.4404C53 52.3037 53.375 53.0811 53.9609 53.6279L45.4648 59.4717C41.3906 62.2686 38.7422 66.6943 38.1953 71.6006L36.2539 89.1123C36.1602 89.9561 36.4297 90.8076 37 91.4404C37.5664 92.0771 38.3828 92.4404 39.2344 92.4404H88.7656C89.6172 92.4404 90.4336 92.0771 91 91.4404C91.5703 90.8076 91.8398 89.9561 91.7461 89.1123L89.8008 71.6006C89.2578 66.6943 86.6094 62.2686 82.5352 59.4717L74.0352 53.6279C74.3477 53.3389 74.6016 52.9912 74.7656 52.5967L84.8203 54.4248C84.8828 54.4365 84.9414 54.4404 85 54.4404C85.4766 54.4404 85.8945 54.1045 85.9844 53.6201C86.082 53.0771 85.7227 52.5576 85.1758 52.4561L76.875 50.9482L81.4961 48.3076C81.9727 48.0342 82.1406 47.4248 81.8672 46.9443C81.5938 46.4639 80.9805 46.2959 80.5039 46.5732L74.5898 49.9521C74.2773 49.4131 73.8125 48.9795 73.2461 48.7217L76.9609 35.7139C77.0781 35.3037 76.9219 34.8623 76.5664 34.6162C76.2148 34.374 75.7422 34.3818 75.4023 34.6396L72 37.1904L68.5977 34.6396C68.2461 34.3701 67.7539 34.3701 67.4023 34.6396L64 37.1904L60.5977 34.6396C60.4219 34.5068 60.2109 34.4404 60 34.4404ZM60 36.6904L63.4023 39.2412C63.7539 39.5107 64.2461 39.5107 64.5977 39.2412L68 36.6904L71.4023 39.2412C71.7539 39.5107 72.2461 39.5107 72.5977 39.2412L74.2188 38.0264L71.2461 48.4404H56.7539L53.7773 38.0264L55.4023 39.2412C55.7539 39.5107 56.2461 39.5107 56.5977 39.2412L60 36.6904ZM56 50.4404H72C72.5508 50.4404 73 50.8896 73 51.4404C73 51.9912 72.5508 52.4404 72 52.4404H56C55.4492 52.4404 55 51.9912 55 51.4404C55 50.8896 55.4492 50.4404 56 50.4404ZM56.3125 54.4404H71.6875L81.4063 61.1201C84.9961 63.5889 87.3359 67.4912 87.8125 71.8232L89.7617 89.3311C89.793 89.6162 89.7031 89.8936 89.5117 90.1084C89.3203 90.3232 89.0547 90.4404 88.7656 90.4404H39.2344C38.9453 90.4404 38.6797 90.3232 38.4883 90.1084C38.2969 89.8936 38.207 89.6162 38.2422 89.3311L40.1875 71.8232C40.6641 67.4912 43.0039 63.5889 46.5938 61.1201L56.3125 54.4404ZM41 84.4404C40.4453 84.4404 40 84.8857 40 85.4404V87.4404C40 87.9951 40.4453 88.4404 41 88.4404C41.5547 88.4404 42 87.9951 42 87.4404V85.4404C42 84.8857 41.5547 84.4404 41 84.4404ZM46 84.4404C45.4453 84.4404 45 84.8857 45 85.4404V87.4404C45 87.9951 45.4453 88.4404 46 88.4404C46.5547 88.4404 47 87.9951 47 87.4404V85.4404C47 84.8857 46.5547 84.4404 46 84.4404ZM51 84.4404C50.4453 84.4404 50 84.8857 50 85.4404V87.4404C50 87.9951 50.4453 88.4404 51 88.4404C51.5547 88.4404 52 87.9951 52 87.4404V85.4404C52 84.8857 51.5547 84.4404 51 84.4404ZM56 84.4404C55.4453 84.4404 55 84.8857 55 85.4404V87.4404C55 87.9951 55.4453 88.4404 56 88.4404C56.5547 88.4404 57 87.9951 57 87.4404V85.4404C57 84.8857 56.5547 84.4404 56 84.4404ZM61 84.4404C60.4453 84.4404 60 84.8857 60 85.4404V87.4404C60 87.9951 60.4453 88.4404 61 88.4404C61.5547 88.4404 62 87.9951 62 87.4404V85.4404C62 84.8857 61.5547 84.4404 61 84.4404ZM67 84.4404C66.4453 84.4404 66 84.8857 66 85.4404V87.4404C66 87.9951 66.4453 88.4404 67 88.4404C67.5547 88.4404 68 87.9951 68 87.4404V85.4404C68 84.8857 67.5547 84.4404 67 84.4404ZM72 84.4404C71.4453 84.4404 71 84.8857 71 85.4404V87.4404C71 87.9951 71.4453 88.4404 72 88.4404C72.5547 88.4404 73 87.9951 73 87.4404V85.4404C73 84.8857 72.5547 84.4404 72 84.4404ZM77 84.4404C76.4453 84.4404 76 84.8857 76 85.4404V87.4404C76 87.9951 76.4453 88.4404 77 88.4404C77.5547 88.4404 78 87.9951 78 87.4404V85.4404C78 84.8857 77.5547 84.4404 77 84.4404ZM82 84.4404C81.4453 84.4404 81 84.8857 81 85.4404V87.4404C81 87.9951 81.4453 88.4404 82 88.4404C82.5547 88.4404 83 87.9951 83 87.4404V85.4404C83 84.8857 82.5547 84.4404 82 84.4404ZM87 84.4404C86.4453 84.4404 86 84.8857 86 85.4404V87.4404C86 87.9951 86.4453 88.4404 87 88.4404C87.5547 88.4404 88 87.9951 88 87.4404V85.4404C88 84.8857 87.5547 84.4404 87 84.4404Z" fill="#170E2F"/>
<path d="M63.6 59.2071C63.6 58.7818 63.9414 58.4404 64.3667 58.4404C64.7919 58.4404 65.1333 58.7818 65.1333 59.2071V61.5071H65.9C68.0143 61.5071 69.7333 63.2261 69.7333 65.3404C69.7333 65.7657 69.3919 66.1071 68.9667 66.1071C68.5414 66.1071 68.2 65.7657 68.2 65.3404C68.2 64.0736 67.1668 63.0404 65.9 63.0404H62.8333C61.5665 63.0404 60.5333 64.0736 60.5333 65.3404V66.8738C60.5333 68.1406 61.5665 69.1738 62.8333 69.1738H63.6V64.5738C63.6 64.1485 63.9414 63.8071 64.3667 63.8071C64.7919 63.8071 65.1333 64.1485 65.1333 64.5738V69.1738H65.9C68.0143 69.1738 69.7333 70.8928 69.7333 73.0071V74.5404C69.7333 76.6548 68.0143 78.3738 65.9 78.3738H65.1333V80.6738C65.1333 81.099 64.7919 81.4404 64.3667 81.4404C63.9414 81.4404 63.6 81.099 63.6 80.6738V78.3738H62.8333C60.719 78.3738 59 76.6548 59 74.5404C59 74.1152 59.3414 73.7738 59.7667 73.7738C60.1919 73.7738 60.5333 74.1152 60.5333 74.5404C60.5333 75.8072 61.5665 76.8404 62.8333 76.8404H63.6V72.2404C63.6 71.8152 63.9414 71.4738 64.3667 71.4738C64.7919 71.4738 65.1333 71.8152 65.1333 72.2404V76.8404H65.9C67.1668 76.8404 68.2 75.8072 68.2 74.5404V73.0071C68.2 71.7403 67.1668 70.7071 65.9 70.7071H62.8333C60.719 70.7071 59 68.9881 59 66.8738V65.3404C59 63.2261 60.719 61.5071 62.8333 61.5071H63.6V59.2071Z" fill="#170E2F"/>
<defs>
<linearGradient id="paint0_linear_101_30155" x1="1.5" y1="63.9404" x2="126.5" y2="63.9404" gradientUnits="userSpaceOnUse">
<stop stop-color="#FFBC0F"/>
<stop offset="1" stop-color="#FFE600"/>
</linearGradient>
<linearGradient id="paint1_linear_101_30155" x1="75.9048" y1="119.365" x2="75.9048" y2="7.33666" gradientUnits="userSpaceOnUse">
<stop stop-color="white"/>
<stop offset="1" stop-color="white" stop-opacity="0"/>
</linearGradient>
</defs>
</svg>
