<svg width="128" height="128" viewBox="0 0 128 128" fill="none" xmlns="http://www.w3.org/2000/svg">
<rect x="1" y="0.94043" width="126" height="126" rx="63" fill="url(#paint0_linear_101_30161)"/>
<rect x="1" y="0.94043" width="126" height="126" rx="63" stroke="url(#paint1_linear_101_30161)"/>
<path d="M60.1346 35.3921C59.2629 35.424 58.3913 35.7628 57.568 36.2903C56.4703 36.9936 55.4128 38.0483 54.4104 39.3566C52.5099 41.8368 50.8179 45.25 49.7188 48.9938L43.2541 51.1072C43.1013 51.157 42.9658 51.2491 42.8633 51.3728C42.7607 51.4965 42.6954 51.6467 42.6747 51.8061L38.3566 85.5023C38.3292 85.717 38.3846 85.9341 38.5117 86.1093C38.6388 86.2846 38.828 86.4047 39.0406 86.4453L69.8349 92.3255C69.8695 92.3316 69.9044 92.3354 69.9395 92.3372C70.0945 92.3653 70.2543 92.3497 70.401 92.2923L86.9843 88.6101C87.1936 88.5637 87.3777 88.4399 87.4997 88.2635C87.6216 88.087 87.6723 87.8711 87.6417 87.6588C87.6417 87.6588 86.1775 77.4716 84.7099 67.2472C83.9761 62.135 83.2411 57.0139 82.6878 53.1525C82.4112 51.2218 82.1802 49.6062 82.0171 48.4642C81.9356 47.8932 81.8707 47.4401 81.8262 47.1261C81.8039 46.9691 81.7866 46.8473 81.7747 46.7625C81.7628 46.6778 81.7497 46.5662 81.7581 46.6447C81.749 46.56 81.7271 46.4772 81.6934 46.399C81.4594 45.8593 80.9752 45.5559 80.6508 45.4444C80.5621 45.4138 80.469 45.3981 80.3752 45.3979C80.4725 45.3979 80.3195 45.395 80.1909 45.3863C80.0624 45.3776 79.8864 45.3649 79.6796 45.3497C79.266 45.3194 78.7299 45.2775 78.2004 45.2369C77.3018 45.1679 76.6705 45.1184 76.424 45.0991C76.2516 44.9218 75.8116 44.4701 75.1623 43.8091C74.7796 43.4195 74.3855 43.0207 74.0633 42.6985C73.7665 42.4017 73.5889 42.2202 73.4158 42.0693L73.4125 42.0676C73.1983 41.8513 72.9513 41.7029 72.6538 41.6476C72.5806 41.6247 72.5047 41.6119 72.428 41.6094C72.2852 41.6053 72.1436 41.6373 72.0163 41.7024L69.4813 42.5308C69.146 41.0918 68.659 39.8465 67.9821 38.8685C67.2823 37.8573 66.3479 37.1139 65.2213 36.8713C64.6148 36.741 64.0063 36.8093 63.42 36.9942C62.7604 36.2218 61.9558 35.6712 61.0062 35.4668H61.0045C60.7157 35.4049 60.4251 35.3815 60.1346 35.3921ZM60.186 37.0921C60.3488 37.0852 60.5031 37.0976 60.6476 37.1286C61.0741 37.2204 61.4794 37.4473 61.8595 37.8093C61.202 38.298 60.5809 38.9296 59.9835 39.6786C58.5058 41.5314 57.1677 44.0936 56.0556 46.9202L51.6993 48.3463C52.7409 45.2344 54.2065 42.4167 55.7601 40.3892C56.6773 39.1921 57.625 38.2736 58.4844 37.723C59.1289 37.31 59.6978 37.1128 60.186 37.0921ZM64.5041 38.495C64.6267 38.4943 64.7469 38.5079 64.8644 38.5331C65.4904 38.6679 66.0585 39.0766 66.5843 39.8364C67.1101 40.5961 67.5576 41.6946 67.8593 43.0438L68.0253 43.0073L65.7509 43.751C65.5427 41.7085 65.1025 39.921 64.3995 38.5066C64.4339 38.5043 64.4703 38.4951 64.5041 38.495ZM62.8473 39.1922C62.8485 39.1946 62.8494 39.1965 62.8506 39.1989C63.477 40.4328 63.9237 42.1963 64.1023 44.2872L64.1123 44.2856L58.1922 46.223C59.1422 44.0464 60.2174 42.1114 61.3116 40.7395C61.8321 40.0869 62.3555 39.5653 62.8473 39.1922ZM71.4934 43.663L71.3639 46.3923C71.3598 46.4871 71.3715 46.582 71.3987 46.6729V46.6745L71.4004 46.6762C71.438 46.801 71.5039 46.9155 71.5928 47.0107C71.6818 47.106 71.7915 47.1796 71.9134 47.2257L71.9184 47.2307L71.9333 47.234C72.0235 47.2657 72.1183 47.282 72.2139 47.2822H72.2155C72.3464 47.2814 72.4753 47.2504 72.5922 47.1917C72.7091 47.1329 72.8108 47.048 72.8896 46.9435L72.8945 46.9418L72.8962 46.9369C72.9963 46.8017 73.0541 46.64 73.0622 46.472L73.1685 44.2109C73.4211 44.4648 73.6771 44.7212 73.9504 44.9994C74.7119 45.7747 75.4296 46.5152 75.4296 46.5152C75.5737 46.6629 75.7667 46.7532 75.9725 46.7692C75.9725 46.7692 77.01 46.8504 78.0709 46.9319C78.6014 46.9726 79.138 47.0141 79.5551 47.0448C79.7636 47.0601 79.9418 47.0722 80.0764 47.0813C80.0883 47.0821 80.0926 47.0821 80.1029 47.0829C80.1141 47.1624 80.1256 47.244 80.1428 47.3652C80.1875 47.6802 80.2521 48.132 80.3337 48.7033C80.4968 49.8458 80.7294 51.4623 81.0061 53.3932C81.5594 57.2549 82.2926 62.3757 83.0265 67.4879C84.438 77.3216 85.7398 86.386 85.8454 87.1209L70.992 90.4197L71.0999 88.1303C71.108 87.9639 71.067 87.7988 70.982 87.6555L71.1082 86.9466L70.5886 86.3905L70.2931 86.3373L69.6124 86.6793L69.4779 87.4281L69.5925 87.5509C69.4771 87.6922 69.4101 87.8668 69.4016 88.049L69.287 90.4894L40.1446 84.9262L44.2934 52.5548L71.4934 43.663ZM72.0528 48.9788L71.3722 49.3208L71.2377 50.0696L71.759 50.6257L72.0528 50.6788L72.7335 50.3385L72.868 49.5881L72.3483 49.032L72.0528 48.9788ZM71.8935 52.3755L71.2128 52.7159L71.0783 53.4662L71.598 54.0224L71.8935 54.0755L72.5741 53.7335L72.7086 52.9848L72.1873 52.4286L71.8935 52.3755ZM60.1943 54.1901C56.4079 54.1925 53.469 55.512 51.5184 57.5486C49.5659 59.587 48.6065 62.3064 48.6065 65.0458C48.6065 68.3556 50.316 70.2416 51.8305 71.5437C52.5877 72.1947 53.292 72.7366 53.7579 73.2686C54.2238 73.8006 54.4618 74.2619 54.4618 74.9553C54.4618 75.2066 54.3583 75.5619 54.158 75.802C53.9577 76.0421 53.701 76.2154 53.1636 76.2154C52.3096 76.2154 51.1344 75.6971 50.2251 75.1296C49.3158 74.5622 48.6812 73.9991 48.6812 73.9991C48.5741 73.9041 48.4448 73.8376 48.3053 73.8059C48.1657 73.7742 48.0204 73.7782 47.8828 73.8176C47.7452 73.857 47.6198 73.9305 47.5182 74.0313C47.4166 74.1321 47.3421 74.2569 47.3016 74.3942L45.9004 79.1256C45.8619 79.256 45.8553 79.3936 45.881 79.5271C45.9067 79.6605 45.964 79.7859 46.0481 79.8926C46.0481 79.8926 48.9721 83.5424 54.5648 83.5433C56.9497 83.5433 59.0876 82.5998 60.5895 80.9335C62.0913 79.2673 62.9535 76.9053 62.9535 74.1252C62.9535 70.5103 60.9187 68.2883 59.0571 66.7807C58.1264 66.0269 57.2286 65.4148 56.625 64.8748C56.0214 64.3349 55.7899 63.9521 55.7899 63.6098C55.7899 63.4405 55.8245 62.9966 56.0971 62.6353C56.3697 62.274 56.883 61.87 58.3034 61.87C60.192 61.87 61.8512 62.7565 61.8512 62.7565C61.961 62.8165 62.0826 62.8516 62.2075 62.8592C62.3324 62.8668 62.4574 62.8467 62.5737 62.8004C62.6899 62.7541 62.7945 62.6827 62.8799 62.5913C62.9654 62.4999 63.0296 62.3908 63.0681 62.2717L65.0619 56.1026C65.1206 55.9205 65.1162 55.7239 65.0493 55.5446C64.9824 55.3654 64.857 55.2139 64.6934 55.1148C64.6934 55.1148 64.2326 54.8424 63.4781 54.6151C62.7244 54.388 61.6245 54.1738 60.1977 54.1901H60.1943ZM71.7324 55.7722L71.0518 56.1125L70.9173 56.8629L71.4386 57.4191L71.7324 57.4722L72.4148 57.1302L72.5476 56.3798L72.0279 55.8237L71.7324 55.7722ZM60.2043 55.8901C60.2076 55.8901 60.2109 55.8901 60.2143 55.8901C61.4637 55.8754 62.3861 56.0611 62.9867 56.242C63.1437 56.2893 63.0943 56.2864 63.2025 56.3267L61.7366 60.8656C60.9579 60.5432 59.8356 60.17 58.3034 60.17C56.516 60.17 55.3483 60.8056 54.7407 61.611C54.1331 62.4163 54.0899 63.2674 54.0899 63.6098C54.0899 64.6738 54.7531 65.4815 55.4928 66.1432C56.2324 66.8049 57.1262 67.4056 57.9863 68.1022C59.7067 69.4954 61.2535 71.1238 61.2535 74.1252C61.2535 76.5565 60.5109 78.4801 59.3261 79.7947C58.1413 81.1092 56.5106 81.8433 54.5648 81.8433C50.1047 81.8426 48.0412 79.5214 47.6817 79.0957L48.5898 76.0328C48.8853 76.2562 48.8947 76.3036 49.3253 76.5723C50.3625 77.2195 51.7124 77.9154 53.1636 77.9154C54.1519 77.9154 54.9698 77.4821 55.4629 76.8911C55.956 76.3 56.1618 75.6008 56.1618 74.9553C56.1618 73.8106 55.6699 72.8713 55.0379 72.1496C54.4059 71.428 53.6461 70.8613 52.9395 70.2537C51.5261 69.0386 50.3064 67.8093 50.3064 65.0458C50.3064 62.7023 51.1232 60.4174 52.7452 58.724C54.3672 57.0305 56.8005 55.8901 60.2043 55.8901ZM71.5731 59.1672L70.8924 59.5092L70.7579 60.2579L71.2775 60.8158L71.5731 60.8672L72.2537 60.5269L72.3882 59.7765L71.8686 59.2203L71.5731 59.1672ZM71.4137 62.5639L70.7314 62.9059L70.5985 63.6546L71.1182 64.2108L71.4137 64.2639L72.0943 63.9236L72.2288 63.1732L71.7075 62.617L71.4137 62.5639ZM71.2526 65.9606L70.572 66.3009L70.4375 67.0513L70.9588 67.6075L71.2526 67.6606L71.9333 67.3186L72.0678 66.5699L71.5481 66.0137L71.2526 65.9606ZM71.0933 69.3573L70.4126 69.6976L70.2781 70.448L70.7978 71.0041L71.0933 71.0573L71.7739 70.7153L71.9084 69.9649L71.3888 69.4087L71.0933 69.3573ZM70.9322 72.7523L70.2516 73.0943L70.1171 73.843L70.6384 74.3992L70.9322 74.4523L71.6146 74.1119L71.7474 73.3616L71.2277 72.8054L70.9322 72.7523ZM70.7729 76.149L70.0922 76.491L69.9577 77.2397L70.4773 77.7958L70.7729 77.849L71.4535 77.507L71.588 76.7582L71.0684 76.2021L70.7729 76.149ZM70.6135 79.5456L69.9328 79.886L69.7983 80.6364L70.318 81.1925L70.6135 81.2456L71.2941 80.9037L71.4286 80.1549L70.9073 79.5988L70.6135 79.5456ZM70.4524 82.9407L69.7718 83.2827L69.6373 84.033L70.1586 84.5892L70.4524 84.6407L71.1331 84.3003L71.2676 83.5499L70.748 82.9938L70.4524 82.9407Z" fill="#170E2F"/>
<defs>
<linearGradient id="paint0_linear_101_30161" x1="1.5" y1="63.9404" x2="126.5" y2="63.9404" gradientUnits="userSpaceOnUse">
<stop stop-color="#FFBC0F"/>
<stop offset="1" stop-color="#FFE600"/>
</linearGradient>
<linearGradient id="paint1_linear_101_30161" x1="75.9048" y1="119.365" x2="75.9048" y2="7.33666" gradientUnits="userSpaceOnUse">
<stop stop-color="white"/>
<stop offset="1" stop-color="white" stop-opacity="0"/>
</linearGradient>
</defs>
</svg>
