<svg width="164" height="28" viewBox="0 0 164 28" fill="none" xmlns="http://www.w3.org/2000/svg">
<path d="M13.3779 1.11245C13.9378 -0.103888 15.663 -0.103889 16.2229 1.11245L19.2949 7.78603C19.5231 8.28176 19.9919 8.62309 20.533 8.68736L27.8164 9.55268C29.1439 9.71039 29.677 11.3545 28.6955 12.264L23.3107 17.2538C22.9107 17.6244 22.7317 18.1767 22.8378 18.7122L24.2672 25.9205C24.5278 27.2343 23.132 28.2505 21.9656 27.5962L15.5656 24.0065C15.0902 23.7398 14.5106 23.7398 14.0352 24.0065L7.63523 27.5962C6.46876 28.2505 5.07302 27.2343 5.33355 25.9205L6.76295 18.7122C6.86913 18.1767 6.69004 17.6244 6.29005 17.2538L0.905235 12.264C-0.0762076 11.3545 0.456914 9.71039 1.7844 9.55268L9.06781 8.68736C9.60884 8.62309 10.0777 8.28176 10.3059 7.78603L13.3779 1.11245Z" fill="url(#paint0_linear_3803_41410)"/>
<path d="M46.9775 1.11245C47.5374 -0.103888 49.2626 -0.103889 49.8225 1.11245L52.8945 7.78603C53.1227 8.28176 53.5916 8.62309 54.1326 8.68736L61.416 9.55268C62.7435 9.71039 63.2766 11.3545 62.2952 12.264L56.9103 17.2538C56.5103 17.6244 56.3313 18.1767 56.4374 18.7122L57.8668 25.9205C58.1274 27.2343 56.7316 28.2505 55.5652 27.5962L49.1652 24.0065C48.6898 23.7398 48.1102 23.7398 47.6348 24.0065L41.2348 27.5962C40.0684 28.2505 38.6726 27.2343 38.9332 25.9205L40.3626 18.7122C40.4687 18.1767 40.2897 17.6244 39.8897 17.2538L34.5048 12.264C33.5234 11.3545 34.0565 9.71039 35.384 9.55268L42.6674 8.68736C43.2084 8.62309 43.6773 8.28176 43.9055 7.78603L46.9775 1.11245Z" fill="url(#paint1_linear_3803_41410)"/>
<path d="M80.5781 1.11245C81.138 -0.103888 82.8632 -0.103889 83.4231 1.11245L86.4951 7.78603C86.7233 8.28176 87.1921 8.62309 87.7332 8.68736L95.0166 9.55268C96.3441 9.71039 96.8772 11.3545 95.8957 12.264L90.5109 17.2538C90.1109 17.6244 89.9319 18.1767 90.038 18.7122L91.4674 25.9205C91.728 27.2343 90.3322 28.2505 89.1657 27.5962L82.7658 24.0065C82.2903 23.7398 81.7108 23.7398 81.2354 24.0065L74.8354 27.5962C73.669 28.2505 72.2732 27.2343 72.5337 25.9205L73.9631 18.7122C74.0693 18.1767 73.8902 17.6244 73.4902 17.2538L68.1054 12.264C67.124 11.3545 67.6571 9.71039 68.9846 9.55268L76.268 8.68736C76.809 8.62309 77.2779 8.28176 77.5061 7.78603L80.5781 1.11245Z" fill="url(#paint2_linear_3803_41410)"/>
<path d="M114.178 1.11245C114.738 -0.103888 116.463 -0.103889 117.023 1.11245L120.095 7.78603C120.323 8.28176 120.792 8.62309 121.333 8.68736L128.616 9.55268C129.944 9.71039 130.477 11.3545 129.495 12.264L124.111 17.2538C123.711 17.6244 123.531 18.1767 123.638 18.7122L125.067 25.9205C125.328 27.2343 123.932 28.2505 122.765 27.5962L116.365 24.0065C115.89 23.7398 115.31 23.7398 114.835 24.0065L108.435 27.5962C107.269 28.2505 105.873 27.2343 106.133 25.9205L107.563 18.7122C107.669 18.1767 107.49 17.6244 107.09 17.2538L101.705 12.264C100.724 11.3545 101.257 9.71039 102.584 9.55268L109.868 8.68736C110.409 8.62309 110.877 8.28176 111.106 7.78603L114.178 1.11245Z" fill="url(#paint3_linear_3803_41410)"/>
<path opacity="0.3" d="M147.778 1.11245C148.338 -0.103888 150.063 -0.103889 150.623 1.11245L153.695 7.78603C153.923 8.28176 154.392 8.62309 154.933 8.68736L162.217 9.55268C163.544 9.71039 164.077 11.3545 163.096 12.264L157.711 17.2538C157.311 17.6244 157.132 18.1767 157.238 18.7122L158.668 25.9205C158.928 27.2343 157.532 28.2505 156.366 27.5962L149.966 24.0065C149.491 23.7398 148.911 23.7398 148.436 24.0065L142.036 27.5962C140.869 28.2505 139.473 27.2343 139.734 25.9205L141.163 18.7122C141.27 18.1767 141.09 17.6244 140.69 17.2538L135.306 12.264C134.324 11.3545 134.857 9.71039 136.185 9.55268L143.468 8.68736C144.009 8.62309 144.478 8.28176 144.706 7.78603L147.778 1.11245Z" fill="white"/>
<path d="M142.036 27.5962L148.436 24.0065C148.673 23.8732 148.937 23.8065 149.201 23.8065V0.200195C148.629 0.200195 148.058 0.50428 147.778 1.11245L144.706 7.78603C144.478 8.28176 144.009 8.62309 143.468 8.68736L136.185 9.55268C134.857 9.71039 134.324 11.3545 135.306 12.264L140.69 17.2538C141.09 17.6244 141.27 18.1767 141.163 18.7122L139.734 25.9205C139.473 27.2343 140.869 28.2505 142.036 27.5962Z" fill="url(#paint4_linear_3803_41410)"/>
<defs>
<linearGradient id="paint0_linear_3803_41410" x1="14.8004" y1="-2.4267" x2="14.8004" y2="27.8002" gradientUnits="userSpaceOnUse">
<stop stop-color="#FDFD5E"/>
<stop offset="1" stop-color="#F7C82E"/>
</linearGradient>
<linearGradient id="paint1_linear_3803_41410" x1="48.4" y1="-2.4267" x2="48.4" y2="27.8002" gradientUnits="userSpaceOnUse">
<stop stop-color="#FDFD5E"/>
<stop offset="1" stop-color="#F7C82E"/>
</linearGradient>
<linearGradient id="paint2_linear_3803_41410" x1="82.0006" y1="-2.4267" x2="82.0006" y2="27.8002" gradientUnits="userSpaceOnUse">
<stop stop-color="#FDFD5E"/>
<stop offset="1" stop-color="#F7C82E"/>
</linearGradient>
<linearGradient id="paint3_linear_3803_41410" x1="115.6" y1="-2.4267" x2="115.6" y2="27.8002" gradientUnits="userSpaceOnUse">
<stop stop-color="#FDFD5E"/>
<stop offset="1" stop-color="#F7C82E"/>
</linearGradient>
<linearGradient id="paint4_linear_3803_41410" x1="142.001" y1="-2.4267" x2="142.001" y2="27.8002" gradientUnits="userSpaceOnUse">
<stop stop-color="#FDFD5E"/>
<stop offset="1" stop-color="#F7C82E"/>
</linearGradient>
</defs>
</svg>
