<?xml version="1.0" encoding="UTF-8"?>
<svg xmlns="http://www.w3.org/2000/svg" xmlns:xlink="http://www.w3.org/1999/xlink" width="32px" height="28px" viewBox="0 0 32 28" version="1.1">
  <title>insight-icon-1</title>
  <g id="#Attend-Feedback-points-01" stroke="none" stroke-width="1" fill="none" fill-rule="evenodd">
    <g id="insight-icon-1" fill="#FFFFFF" fill-rule="nonzero">
      <path d="M20.365816,21.6821006 C21.0631474,20.7005151 21.4741995,19.4984022 21.4741995,18.2010421 C21.4741995,14.8999358 18.8137147,12.2141975 15.5435127,12.2141975 C12.2733714,12.2141975 9.61282583,14.8998745 9.61282583,18.2010421 C9.61282583,21.5022097 12.2733107,24.1879479 15.5435127,24.1879479 C16.8287033,24.1879479 18.0196009,23.7729423 18.991979,23.0690078 L23.2981295,27.4159946 C23.4800963,27.6002141 23.7273067,27.7036037 23.9850177,27.7032693 C24.2427246,27.7035833 24.4899276,27.6001968 24.6719058,27.4159946 C25.0513245,27.0330445 25.0513245,26.4120989 24.6719058,26.0291487 L20.365816,21.6821006 Z M11.5557606,18.2010421 C11.5557606,15.9813654 13.344657,14.1755299 15.5435127,14.1755299 C17.7423684,14.1755299 19.5312648,15.9813654 19.5312648,18.2010421 C19.5312648,20.42078 17.7423684,22.2266155 15.5435127,22.2266155 C13.344657,22.2266155 11.5557606,20.42078 11.5557606,18.2010421 Z M30.9592426,18.6872073 C29.6675553,20.9714241 27.8489684,22.8565097 25.5541196,24.290305 C25.0978942,24.5753111 24.4991668,24.4329919 24.2168341,23.9724465 C23.9345014,23.5119012 24.0754248,22.9075043 24.5316502,22.6224982 C26.3815669,21.4667831 27.8768981,19.9812577 28.9831565,18.201655 C26.3143535,13.9283407 21.2214966,11.2965391 15.5435127,11.2965391 C9.8652252,11.2965391 4.77236824,13.9282182 2.10374738,18.2019615 C5.77455826,24.1222433 12.9812068,25.8183055 18.6228821,24.8424813 C19.1517246,24.7513407 19.6537911,25.1096516 19.7443804,25.6435017 C19.8349698,26.1773519 19.4797163,26.6841725 18.9508738,26.7756809 C17.8330791,26.9689334 16.6954301,27.0645484 15.5598455,27.0645484 C13.0580741,27.0645484 10.5649853,26.6008771 8.30632366,25.6963964 C4.7417063,24.2689755 1.91364336,21.845259 0.127782754,18.6872686 C-0.0425942513,18.3859972 -0.0425942513,18.0162709 0.127782754,17.7149994 C1.63258571,15.0538391 3.92427723,12.875044 6.75507242,11.4140965 C9.39017766,10.0541576 12.4291705,9.3353293 15.5433912,9.3353293 C18.657612,9.3353293 21.6966048,10.0541576 24.3317708,11.4140965 C27.162566,12.875044 29.4542575,15.0538391 30.9591212,17.7149994 C31.129525,18.0162302 31.1295711,18.3859331 30.9592426,18.6872073 L30.9592426,18.6872073 Z M14.5720453,5.98114444 L14.5720453,0.9806662 C14.5720453,0.439031999 15.0070198,0 15.5435127,0 C16.0800055,0 16.51498,0.439031999 16.51498,0.9806662 L16.51498,5.98114444 C16.51498,6.52277864 16.0800055,6.96181064 15.5435127,6.96181064 C15.0070198,6.96181064 14.5720453,6.52277864 14.5720453,5.98114444 Z M20.7548887,7.12797227 L23.2316447,2.79747292 C23.4998911,2.32846931 24.0940042,2.16770134 24.5586691,2.43854909 C25.0232734,2.70933554 25.1824726,3.30913551 24.9142262,3.77813912 L22.4374701,8.10863847 C22.2575665,8.42324845 21.9309713,8.59915545 21.5952079,8.59915545 C21.4304228,8.59915545 21.2633911,8.55680292 21.110385,8.46762359 C20.6458414,8.19677585 20.4866422,7.59697588 20.7548887,7.12797227 L20.7548887,7.12797227 Z M6.17273845,3.77807783 C5.90449202,3.30907422 6.06369124,2.70927425 6.52829551,2.4384878 C6.99296049,2.16770134 7.58707351,2.32840802 7.85531993,2.79741163 L10.332076,7.12791098 C10.6003224,7.59691459 10.4411232,8.19671455 9.97651893,8.46750101 C9.82918959,8.55364026 9.66195273,8.59903286 9.491696,8.59903286 C9.15593259,8.59903286 8.82939812,8.42312586 8.64943379,8.10851589 L6.17273845,3.77807783 Z" id="Shape"></path>
    </g>
  </g>
</svg>
