<?xml version="1.0" encoding="UTF-8"?>
<svg xmlns="http://www.w3.org/2000/svg" xmlns:xlink="http://www.w3.org/1999/xlink" width="26px" height="26px" viewBox="0 0 26 26" version="1.1">
  <title>insight-icon-3</title>
  <g id="#Attend-Feedback-points-01" stroke="none" stroke-width="1" fill="none" fill-rule="evenodd">
    <path d="M20.6363357,1 C21.8396238,1 22.8181679,1.97849501 22.8181167,3.18183678 L22.8181167,3.18183678 L22.8181167,8.36389728 L24.7815458,9.83647218 C24.9179653,9.93856596 24.9987747,10.0985957 25,10.2689839 C25,10.2703134 24.9990795,10.2713873 24.9991307,10.2727168 L24.9991307,10.2727168 L25,10.2727168 L25,22.8181632 C25,24.021505 24.0214559,25 22.8181679,25 L22.8181679,25 L3.18183213,25 C1.97849293,25 1,24.0214539 1,22.8181632 L1,22.8181632 L1,10.2689839 C1.00107386,10.0985462 1.08202261,9.93874498 1.2184031,9.83647218 L1.2184031,9.83647218 L3.18183213,8.36394841 L3.18183213,3.18183678 C3.18183213,1.97849501 4.16032506,1 5.36361312,1 L5.36361312,1 Z M23.9090584,11.3860585 C21.7954421,13.0288154 16.4275122,17.2224092 14.4664354,18.9590014 C14.0392428,19.3372062 13.5124368,19.5454848 12.9829716,19.5454848 C12.4572394,19.5454848 11.9501208,19.3425244 11.5165362,18.9590014 C9.62950479,17.2873525 4.36599522,13.15727 2.09094163,11.3864165 L2.09094163,11.3864165 L2.09094163,22.8182144 C2.09094163,23.4195784 2.58046935,23.9091072 3.18183213,23.9091072 L3.18183213,23.9091072 L22.8181679,23.9091072 C23.4195307,23.9091072 23.9090584,23.4195784 23.9090584,22.8182144 L23.9090584,22.8182144 Z M20.6363357,2.09094396 L5.36361312,2.09094396 C4.76225034,2.09094396 4.27272262,2.58047271 4.27272262,3.18183678 L4.27272262,3.18183678 L4.27272262,11.707144 C5.14616194,12.3912723 6.17577331,13.2012123 7.21585808,14.0272857 L7.90920065,14.5791878 C9.63844169,15.9589004 11.3068381,17.3157253 12.239859,18.1418929 C12.4742167,18.34966 12.7240174,18.4545919 12.9829205,18.4545919 C13.3371416,18.4545919 13.6114878,18.258535 13.7430614,18.1418929 C15.349508,16.7199941 19.1948037,13.6839749 21.7272262,11.703769 L21.7272262,11.703769 L21.7272262,3.18183678 C21.7272262,2.58047271 21.2376985,2.09094396 20.6363357,2.09094396 L20.6363357,2.09094396 Z M13.4615129,5.53143831 L13.4607459,9.11843831 L17.0492029,9.11912834 L17.0492029,10.0422053 L13.4607459,10.0414383 L13.4615129,13.6298953 L12.538436,13.6298953 L12.5377459,10.0414383 L8.95074594,10.0422053 L8.95074594,9.11912834 L12.5377459,9.11843831 L12.538436,5.53143831 L13.4615129,5.53143831 Z M3.18183213,9.72714256 L2.44460022,10.2801827 C2.64438971,10.4355351 2.89833253,10.6332796 3.18183213,10.8543934 L3.18183213,10.8543934 L3.18183213,9.72714256 Z M22.8181679,9.72709143 L22.8181679,10.8525525 C23.1013607,10.6320523 23.3552012,10.4346147 23.5548373,10.2796714 L23.5548373,10.2796714 L22.8181679,9.72709143 Z" id="insight-icon-3" stroke="#FFFFFF" stroke-width="0.5" fill="#FFFFFF" fill-rule="nonzero"></path>
  </g>
</svg>
