<?xml version="1.0" encoding="UTF-8"?>
<svg width="1392px" height="744px" viewBox="0 0 1392 744" version="1.1" xmlns="http://www.w3.org/2000/svg" xmlns:xlink="http://www.w3.org/1999/xlink">
    <title>Combined Shape</title>
    <defs>
        <linearGradient x1="36.7682733%" y1="42.7192441%" x2="107.667188%" y2="68.300745%" id="linearGradient-1">
            <stop stop-color="#000000" stop-opacity="0.08" offset="0%"></stop>
            <stop stop-color="#FFFFFF" stop-opacity="0.16" offset="100%"></stop>
        </linearGradient>
    </defs>
    <g id="#Attend-Feedback-points-01" stroke="none" stroke-width="1" fill="none" fill-rule="evenodd">
        <path d="M56.5,0 L56.5,64.68 L119.5,64.68 L119.5,0 L120.5,0 L120.5,64.68 L183.5,64.68 L183.5,0 L184.5,0 L184.5,64.68 L247.5,64.68 L247.5,0 L248.5,0 L248.5,64.68 L311.5,64.68 L311.5,0 L312.5,0 L312.5,64.68 L375.5,64.68 L375.5,0 L376.5,0 L376.5,64.68 L439.5,64.68 L439.5,0 L440.5,0 L440.5,64.68 L503.5,64.68 L503.5,0 L504.5,0 L504.5,64.68 L567.5,64.68 L567.5,0 L568.5,0 L568.5,64.68 L631.5,64.68 L631.5,0 L632.5,0 L632.5,64.68 L695.5,64.68 L695.5,0 L696.5,0 L696.5,64.68 L759.5,64.68 L759.5,0 L760.5,0 L760.5,64.68 L823.5,64.68 L823.5,0 L824.5,0 L824.5,64.68 L887.5,64.68 L887.5,0 L888.5,0 L888.5,64.68 L951.5,64.68 L951.5,0 L952.5,0 L952.5,64.68 L1015.5,64.68 L1015.5,0 L1016.5,0 L1016.5,64.68 L1079.5,64.68 L1079.5,0 L1080.5,0 L1080.5,64.68 L1143.5,64.68 L1143.5,0 L1144.5,0 L1144.5,64.68 L1207.5,64.68 L1207.5,0 L1208.5,0 L1208.5,64.68 L1271.5,64.68 L1271.5,0 L1272.5,0 L1272.5,64.68 L1335.5,64.68 L1335.5,0 L1336.5,0 L1336.5,64.68 L1392,64.680215 L1392,65.680215 L1336.5,65.68 L1336.5,128.68 L1392,128.680215 L1392,129.680215 L1336.5,129.68 L1336.5,192.68 L1392,192.680215 L1392,193.680215 L1336.5,193.68 L1336.5,256.68 L1392,256.680215 L1392,257.680215 L1336.5,257.68 L1336.5,320.68 L1392,320.680215 L1392,321.680215 L1336.5,321.68 L1336.5,384.68 L1392,384.680215 L1392,385.680215 L1336.5,385.68 L1336.5,448.68 L1392,448.680215 L1392,449.680215 L1336.5,449.68 L1336.5,512.68 L1392,512.680215 L1392,513.680215 L1336.5,513.68 L1336.5,576.68 L1392,576.680215 L1392,577.680215 L1336.5,577.68 L1336.5,640.68 L1392,640.680215 L1392,641.680215 L1336.5,641.68 L1336.5,704.68 L1392,704.680215 L1392,705.680215 L1336.5,705.68 L1336.5,743.36043 L1335.5,743.36043 L1335.5,705.68 L1272.5,705.68 L1272.5,743.36043 L1271.5,743.36043 L1271.5,705.68 L1208.5,705.68 L1208.5,743.36043 L1207.5,743.36043 L1207.5,705.68 L1144.5,705.68 L1144.5,743.36043 L1143.5,743.36043 L1143.5,705.68 L1080.5,705.68 L1080.5,743.36043 L1079.5,743.36043 L1079.5,705.68 L1016.5,705.68 L1016.5,743.36043 L1015.5,743.36043 L1015.5,705.68 L952.5,705.68 L952.5,743.36043 L951.5,743.36043 L951.5,705.68 L888.5,705.68 L888.5,743.36043 L887.5,743.36043 L887.5,705.68 L824.5,705.68 L824.5,743.36043 L823.5,743.36043 L823.5,705.68 L760.5,705.68 L760.5,743.36043 L759.5,743.36043 L759.5,705.68 L696.5,705.68 L696.5,743.36043 L695.5,743.36043 L695.5,705.68 L632.5,705.68 L632.5,743.36043 L631.5,743.36043 L631.5,705.68 L568.5,705.68 L568.5,743.36043 L567.5,743.36043 L567.5,705.68 L504.5,705.68 L504.5,743.36043 L503.5,743.36043 L503.5,705.68 L440.5,705.68 L440.5,743.36043 L439.5,743.36043 L439.5,705.68 L376.5,705.68 L376.5,743.36043 L375.5,743.36043 L375.5,705.68 L312.5,705.68 L312.5,743.36043 L311.5,743.36043 L311.5,705.68 L248.5,705.68 L248.5,743.36043 L247.5,743.36043 L247.5,705.68 L184.5,705.68 L184.5,743.36043 L183.5,743.36043 L183.5,705.68 L120.5,705.68 L120.5,743.36043 L119.5,743.36043 L119.5,705.68 L56.5,705.68 L56.5,743.36043 L55.5,743.36043 L55.5,705.68 L-4.54747351e-13,705.680215 L-4.54747351e-13,704.680215 L55.5,704.68 L55.5,641.68 L-4.54747351e-13,641.680215 L-4.54747351e-13,640.680215 L55.5,640.68 L55.5,577.68 L-4.54747351e-13,577.680215 L-4.54747351e-13,576.680215 L55.5,576.68 L55.5,513.68 L-4.54747351e-13,513.680215 L-4.54747351e-13,512.680215 L55.5,512.68 L55.5,449.68 L-4.54747351e-13,449.680215 L-4.54747351e-13,448.680215 L55.5,448.68 L55.5,385.68 L-4.54747351e-13,385.680215 L-4.54747351e-13,384.680215 L55.5,384.68 L55.5,321.68 L-4.54747351e-13,321.680215 L-4.54747351e-13,320.680215 L55.5,320.68 L55.5,257.68 L-4.54747351e-13,257.680215 L-4.54747351e-13,256.680215 L55.5,256.68 L55.5,193.68 L-4.54747351e-13,193.680215 L-4.54747351e-13,192.680215 L55.5,192.68 L55.5,129.68 L-4.54747351e-13,129.680215 L-4.54747351e-13,128.680215 L55.5,128.68 L55.5,65.68 L-4.54747351e-13,65.680215 L-4.54747351e-13,64.680215 L55.5,64.68 L55.5,0 L56.5,0 Z M1335.5,704.68 L1335.5,641.68 L1272.5,641.68 L1272.5,704.68 L1335.5,704.68 Z M887.5,641.68 L824.5,641.68 L824.5,704.68 L887.5,704.68 L887.5,641.68 Z M503.5,641.68 L440.5,641.68 L440.5,704.68 L503.5,704.68 L503.5,641.68 Z M1207.5,641.68 L1144.5,641.68 L1144.5,704.68 L1207.5,704.68 L1207.5,641.68 Z M631.5,641.68 L568.5,641.68 L568.5,704.68 L631.5,704.68 L631.5,641.68 Z M823.5,641.68 L760.5,641.68 L760.5,704.68 L823.5,704.68 L823.5,641.68 Z M1079.5,641.68 L1016.5,641.68 L1016.5,704.68 L1079.5,704.68 L1079.5,641.68 Z M375.5,641.68 L312.5,641.68 L312.5,704.68 L375.5,704.68 L375.5,641.68 Z M247.5,641.68 L184.5,641.68 L184.5,704.68 L247.5,704.68 L247.5,641.68 Z M951.5,641.68 L888.5,641.68 L888.5,704.68 L951.5,704.68 L951.5,641.68 Z M183.5,641.68 L120.5,641.68 L120.5,704.68 L183.5,704.68 L183.5,641.68 Z M695.5,641.68 L632.5,641.68 L632.5,704.68 L695.5,704.68 L695.5,641.68 Z M311.5,641.68 L248.5,641.68 L248.5,704.68 L311.5,704.68 L311.5,641.68 Z M1015.5,641.68 L952.5,641.68 L952.5,704.68 L1015.5,704.68 L1015.5,641.68 Z M759.5,641.68 L696.5,641.68 L696.5,704.68 L759.5,704.68 L759.5,641.68 Z M119.5,641.68 L56.5,641.68 L56.5,704.68 L119.5,704.68 L119.5,641.68 Z M1143.5,641.68 L1080.5,641.68 L1080.5,704.68 L1143.5,704.68 L1143.5,641.68 Z M567.5,641.68 L504.5,641.68 L504.5,704.68 L567.5,704.68 L567.5,641.68 Z M439.5,641.68 L376.5,641.68 L376.5,704.68 L439.5,704.68 L439.5,641.68 Z M1271.5,641.68 L1208.5,641.68 L1208.5,704.68 L1271.5,704.68 L1271.5,641.68 Z M1335.5,640.68 L1335.5,577.68 L1272.5,577.68 L1272.5,640.68 L1335.5,640.68 Z M503.5,577.68 L440.5,577.68 L440.5,640.68 L503.5,640.68 L503.5,577.68 Z M1207.5,577.68 L1144.5,577.68 L1144.5,640.68 L1207.5,640.68 L1207.5,577.68 Z M1079.5,577.68 L1016.5,577.68 L1016.5,640.68 L1079.5,640.68 L1079.5,577.68 Z M1015.5,577.68 L952.5,577.68 L952.5,640.68 L1015.5,640.68 L1015.5,577.68 Z M951.5,577.68 L888.5,577.68 L888.5,640.68 L951.5,640.68 L951.5,577.68 Z M887.5,577.68 L824.5,577.68 L824.5,640.68 L887.5,640.68 L887.5,577.68 Z M823.5,577.68 L760.5,577.68 L760.5,640.68 L823.5,640.68 L823.5,577.68 Z M759.5,577.68 L696.5,577.68 L696.5,640.68 L759.5,640.68 L759.5,577.68 Z M695.5,577.68 L632.5,577.68 L632.5,640.68 L695.5,640.68 L695.5,577.68 Z M631.5,577.68 L568.5,577.68 L568.5,640.68 L631.5,640.68 L631.5,577.68 Z M567.5,577.68 L504.5,577.68 L504.5,640.68 L567.5,640.68 L567.5,577.68 Z M439.5,577.68 L376.5,577.68 L376.5,640.68 L439.5,640.68 L439.5,577.68 Z M375.5,577.68 L312.5,577.68 L312.5,640.68 L375.5,640.68 L375.5,577.68 Z M311.5,577.68 L248.5,577.68 L248.5,640.68 L311.5,640.68 L311.5,577.68 Z M247.5,577.68 L184.5,577.68 L184.5,640.68 L247.5,640.68 L247.5,577.68 Z M183.5,577.68 L120.5,577.68 L120.5,640.68 L183.5,640.68 L183.5,577.68 Z M119.5,577.68 L56.5,577.68 L56.5,640.68 L119.5,640.68 L119.5,577.68 Z M1143.5,577.68 L1080.5,577.68 L1080.5,640.68 L1143.5,640.68 L1143.5,577.68 Z M1271.5,577.68 L1208.5,577.68 L1208.5,640.68 L1271.5,640.68 L1271.5,577.68 Z M1335.5,576.68 L1335.5,513.68 L1272.5,513.68 L1272.5,576.68 L1335.5,576.68 Z M183.5,513.68 L120.5,513.68 L120.5,576.68 L183.5,576.68 L183.5,513.68 Z M1207.5,513.68 L1144.5,513.68 L1144.5,576.68 L1207.5,576.68 L1207.5,513.68 Z M759.5,513.68 L696.5,513.68 L696.5,576.68 L759.5,576.68 L759.5,513.68 Z M439.5,513.68 L376.5,513.68 L376.5,576.68 L439.5,576.68 L439.5,513.68 Z M247.5,513.68 L184.5,513.68 L184.5,576.68 L247.5,576.68 L247.5,513.68 Z M695.5,513.68 L632.5,513.68 L632.5,576.68 L695.5,576.68 L695.5,513.68 Z M567.5,513.68 L504.5,513.68 L504.5,576.68 L567.5,576.68 L567.5,513.68 Z M823.5,513.68 L760.5,513.68 L760.5,576.68 L823.5,576.68 L823.5,513.68 Z M951.5,513.68 L888.5,513.68 L888.5,576.68 L951.5,576.68 L951.5,513.68 Z M1015.5,513.68 L952.5,513.68 L952.5,576.68 L1015.5,576.68 L1015.5,513.68 Z M1143.5,513.68 L1080.5,513.68 L1080.5,576.68 L1143.5,576.68 L1143.5,513.68 Z M1079.5,513.68 L1016.5,513.68 L1016.5,576.68 L1079.5,576.68 L1079.5,513.68 Z M375.5,513.68 L312.5,513.68 L312.5,576.68 L375.5,576.68 L375.5,513.68 Z M631.5,513.68 L568.5,513.68 L568.5,576.68 L631.5,576.68 L631.5,513.68 Z M311.5,513.68 L248.5,513.68 L248.5,576.68 L311.5,576.68 L311.5,513.68 Z M119.5,513.68 L56.5,513.68 L56.5,576.68 L119.5,576.68 L119.5,513.68 Z M887.5,513.68 L824.5,513.68 L824.5,576.68 L887.5,576.68 L887.5,513.68 Z M503.5,513.68 L440.5,513.68 L440.5,576.68 L503.5,576.68 L503.5,513.68 Z M1271.5,513.68 L1208.5,513.68 L1208.5,576.68 L1271.5,576.68 L1271.5,513.68 Z M1335.5,512.68 L1335.5,449.68 L1272.5,449.68 L1272.5,512.68 L1335.5,512.68 Z M183.5,449.68 L120.5,449.68 L120.5,512.68 L183.5,512.68 L183.5,449.68 Z M247.5,449.68 L184.5,449.68 L184.5,512.68 L247.5,512.68 L247.5,449.68 Z M1207.5,449.68 L1144.5,449.68 L1144.5,512.68 L1207.5,512.68 L1207.5,449.68 Z M1079.5,449.68 L1016.5,449.68 L1016.5,512.68 L1079.5,512.68 L1079.5,449.68 Z M951.5,449.68 L888.5,449.68 L888.5,512.68 L951.5,512.68 L951.5,449.68 Z M823.5,449.68 L760.5,449.68 L760.5,512.68 L823.5,512.68 L823.5,449.68 Z M695.5,449.68 L632.5,449.68 L632.5,512.68 L695.5,512.68 L695.5,449.68 Z M567.5,449.68 L504.5,449.68 L504.5,512.68 L567.5,512.68 L567.5,449.68 Z M375.5,449.68 L312.5,449.68 L312.5,512.68 L375.5,512.68 L375.5,449.68 Z M311.5,449.68 L248.5,449.68 L248.5,512.68 L311.5,512.68 L311.5,449.68 Z M439.5,449.68 L376.5,449.68 L376.5,512.68 L439.5,512.68 L439.5,449.68 Z M119.5,449.68 L56.5,449.68 L56.5,512.68 L119.5,512.68 L119.5,449.68 Z M503.5,449.68 L440.5,449.68 L440.5,512.68 L503.5,512.68 L503.5,449.68 Z M631.5,449.68 L568.5,449.68 L568.5,512.68 L631.5,512.68 L631.5,449.68 Z M759.5,449.68 L696.5,449.68 L696.5,512.68 L759.5,512.68 L759.5,449.68 Z M887.5,449.68 L824.5,449.68 L824.5,512.68 L887.5,512.68 L887.5,449.68 Z M1015.5,449.68 L952.5,449.68 L952.5,512.68 L1015.5,512.68 L1015.5,449.68 Z M1143.5,449.68 L1080.5,449.68 L1080.5,512.68 L1143.5,512.68 L1143.5,449.68 Z M1271.5,449.68 L1208.5,449.68 L1208.5,512.68 L1271.5,512.68 L1271.5,449.68 Z M1335.5,448.68 L1335.5,385.68 L1272.5,385.68 L1272.5,448.68 L1335.5,448.68 Z M1271.5,385.68 L1208.5,385.68 L1208.5,448.68 L1271.5,448.68 L1271.5,385.68 Z M1207.5,385.68 L1144.5,385.68 L1144.5,448.68 L1207.5,448.68 L1207.5,385.68 Z M1079.5,385.68 L1016.5,385.68 L1016.5,448.68 L1079.5,448.68 L1079.5,385.68 Z M951.5,385.68 L888.5,385.68 L888.5,448.68 L951.5,448.68 L951.5,385.68 Z M887.5,385.68 L824.5,385.68 L824.5,448.68 L887.5,448.68 L887.5,385.68 Z M823.5,385.68 L760.5,385.68 L760.5,448.68 L823.5,448.68 L823.5,385.68 Z M759.5,385.68 L696.5,385.68 L696.5,448.68 L759.5,448.68 L759.5,385.68 Z M695.5,385.68 L632.5,385.68 L632.5,448.68 L695.5,448.68 L695.5,385.68 Z M631.5,385.68 L568.5,385.68 L568.5,448.68 L631.5,448.68 L631.5,385.68 Z M567.5,385.68 L504.5,385.68 L504.5,448.68 L567.5,448.68 L567.5,385.68 Z M503.5,385.68 L440.5,385.68 L440.5,448.68 L503.5,448.68 L503.5,385.68 Z M439.5,385.68 L376.5,385.68 L376.5,448.68 L439.5,448.68 L439.5,385.68 Z M375.5,385.68 L312.5,385.68 L312.5,448.68 L375.5,448.68 L375.5,385.68 Z M311.5,385.68 L248.5,385.68 L248.5,448.68 L311.5,448.68 L311.5,385.68 Z M247.5,385.68 L184.5,385.68 L184.5,448.68 L247.5,448.68 L247.5,385.68 Z M183.5,385.68 L120.5,385.68 L120.5,448.68 L183.5,448.68 L183.5,385.68 Z M119.5,385.68 L56.5,385.68 L56.5,448.68 L119.5,448.68 L119.5,385.68 Z M1015.5,385.68 L952.5,385.68 L952.5,448.68 L1015.5,448.68 L1015.5,385.68 Z M1143.5,385.68 L1080.5,385.68 L1080.5,448.68 L1143.5,448.68 L1143.5,385.68 Z M1335.5,384.68 L1335.5,321.68 L1272.5,321.68 L1272.5,384.68 L1335.5,384.68 Z M1207.5,321.68 L1144.5,321.68 L1144.5,384.68 L1207.5,384.68 L1207.5,321.68 Z M1143.5,321.68 L1080.5,321.68 L1080.5,384.68 L1143.5,384.68 L1143.5,321.68 Z M1079.5,321.68 L1016.5,321.68 L1016.5,384.68 L1079.5,384.68 L1079.5,321.68 Z M1015.5,321.68 L952.5,321.68 L952.5,384.68 L1015.5,384.68 L1015.5,321.68 Z M951.5,321.68 L888.5,321.68 L888.5,384.68 L951.5,384.68 L951.5,321.68 Z M823.5,321.68 L760.5,321.68 L760.5,384.68 L823.5,384.68 L823.5,321.68 Z M695.5,321.68 L632.5,321.68 L632.5,384.68 L695.5,384.68 L695.5,321.68 Z M567.5,321.68 L504.5,321.68 L504.5,384.68 L567.5,384.68 L567.5,321.68 Z M439.5,321.68 L376.5,321.68 L376.5,384.68 L439.5,384.68 L439.5,321.68 Z M375.5,321.68 L312.5,321.68 L312.5,384.68 L375.5,384.68 L375.5,321.68 Z M311.5,321.68 L248.5,321.68 L248.5,384.68 L311.5,384.68 L311.5,321.68 Z M247.5,321.68 L184.5,321.68 L184.5,384.68 L247.5,384.68 L247.5,321.68 Z M183.5,321.68 L120.5,321.68 L120.5,384.68 L183.5,384.68 L183.5,321.68 Z M119.5,321.68 L56.5,321.68 L56.5,384.68 L119.5,384.68 L119.5,321.68 Z M503.5,321.68 L440.5,321.68 L440.5,384.68 L503.5,384.68 L503.5,321.68 Z M631.5,321.68 L568.5,321.68 L568.5,384.68 L631.5,384.68 L631.5,321.68 Z M759.5,321.68 L696.5,321.68 L696.5,384.68 L759.5,384.68 L759.5,321.68 Z M887.5,321.68 L824.5,321.68 L824.5,384.68 L887.5,384.68 L887.5,321.68 Z M1271.5,321.68 L1208.5,321.68 L1208.5,384.68 L1271.5,384.68 L1271.5,321.68 Z M1335.5,320.68 L1335.5,257.68 L1272.5,257.68 L1272.5,320.68 L1335.5,320.68 Z M119.5,257.68 L56.5,257.68 L56.5,320.68 L119.5,320.68 L119.5,257.68 Z M1207.5,257.68 L1144.5,257.68 L1144.5,320.68 L1207.5,320.68 L1207.5,257.68 Z M567.5,257.68 L504.5,257.68 L504.5,320.68 L567.5,320.68 L567.5,257.68 Z M1079.5,257.68 L1016.5,257.68 L1016.5,320.68 L1079.5,320.68 L1079.5,257.68 Z M823.5,257.68 L760.5,257.68 L760.5,320.68 L823.5,320.68 L823.5,257.68 Z M759.5,257.68 L696.5,257.68 L696.5,320.68 L759.5,320.68 L759.5,257.68 Z M1015.5,257.68 L952.5,257.68 L952.5,320.68 L1015.5,320.68 L1015.5,257.68 Z M311.5,257.68 L248.5,257.68 L248.5,320.68 L311.5,320.68 L311.5,257.68 Z M887.5,257.68 L824.5,257.68 L824.5,320.68 L887.5,320.68 L887.5,257.68 Z M631.5,257.68 L568.5,257.68 L568.5,320.68 L631.5,320.68 L631.5,257.68 Z M695.5,257.68 L632.5,257.68 L632.5,320.68 L695.5,320.68 L695.5,257.68 Z M439.5,257.68 L376.5,257.68 L376.5,320.68 L439.5,320.68 L439.5,257.68 Z M503.5,257.68 L440.5,257.68 L440.5,320.68 L503.5,320.68 L503.5,257.68 Z M375.5,257.68 L312.5,257.68 L312.5,320.68 L375.5,320.68 L375.5,257.68 Z M183.5,257.68 L120.5,257.68 L120.5,320.68 L183.5,320.68 L183.5,257.68 Z M247.5,257.68 L184.5,257.68 L184.5,320.68 L247.5,320.68 L247.5,257.68 Z M1143.5,257.68 L1080.5,257.68 L1080.5,320.68 L1143.5,320.68 L1143.5,257.68 Z M951.5,257.68 L888.5,257.68 L888.5,320.68 L951.5,320.68 L951.5,257.68 Z M1271.5,257.68 L1208.5,257.68 L1208.5,320.68 L1271.5,320.68 L1271.5,257.68 Z M1335.5,256.68 L1335.5,193.68 L1272.5,193.68 L1272.5,256.68 L1335.5,256.68 Z M439.5,193.68 L376.5,193.68 L376.5,256.68 L439.5,256.68 L439.5,193.68 Z M567.5,193.68 L504.5,193.68 L504.5,256.68 L567.5,256.68 L567.5,193.68 Z M951.5,193.68 L888.5,193.68 L888.5,256.68 L951.5,256.68 L951.5,193.68 Z M631.5,193.68 L568.5,193.68 L568.5,256.68 L631.5,256.68 L631.5,193.68 Z M695.5,193.68 L632.5,193.68 L632.5,256.68 L695.5,256.68 L695.5,193.68 Z M119.5,193.68 L56.5,193.68 L56.5,256.68 L119.5,256.68 L119.5,193.68 Z M759.5,193.68 L696.5,193.68 L696.5,256.68 L759.5,256.68 L759.5,193.68 Z M247.5,193.68 L184.5,193.68 L184.5,256.68 L247.5,256.68 L247.5,193.68 Z M887.5,193.68 L824.5,193.68 L824.5,256.68 L887.5,256.68 L887.5,193.68 Z M1015.5,193.68 L952.5,193.68 L952.5,256.68 L1015.5,256.68 L1015.5,193.68 Z M375.5,193.68 L312.5,193.68 L312.5,256.68 L375.5,256.68 L375.5,193.68 Z M503.5,193.68 L440.5,193.68 L440.5,256.68 L503.5,256.68 L503.5,193.68 Z M1079.5,193.68 L1016.5,193.68 L1016.5,256.68 L1079.5,256.68 L1079.5,193.68 Z M823.5,193.68 L760.5,193.68 L760.5,256.68 L823.5,256.68 L823.5,193.68 Z M1143.5,193.68 L1080.5,193.68 L1080.5,256.68 L1143.5,256.68 L1143.5,193.68 Z M183.5,193.68 L120.5,193.68 L120.5,256.68 L183.5,256.68 L183.5,193.68 Z M1207.5,193.68 L1144.5,193.68 L1144.5,256.68 L1207.5,256.68 L1207.5,193.68 Z M311.5,193.68 L248.5,193.68 L248.5,256.68 L311.5,256.68 L311.5,193.68 Z M1271.5,193.68 L1208.5,193.68 L1208.5,256.68 L1271.5,256.68 L1271.5,193.68 Z M1335.5,192.68 L1335.5,129.68 L1272.5,129.68 L1272.5,192.68 L1335.5,192.68 Z M631.5,129.68 L568.5,129.68 L568.5,192.68 L631.5,192.68 L631.5,129.68 Z M119.5,129.68 L56.5,129.68 L56.5,192.68 L119.5,192.68 L119.5,129.68 Z M183.5,129.68 L120.5,129.68 L120.5,192.68 L183.5,192.68 L183.5,129.68 Z M247.5,129.68 L184.5,129.68 L184.5,192.68 L247.5,192.68 L247.5,129.68 Z M311.5,129.68 L248.5,129.68 L248.5,192.68 L311.5,192.68 L311.5,129.68 Z M375.5,129.68 L312.5,129.68 L312.5,192.68 L375.5,192.68 L375.5,129.68 Z M439.5,129.68 L376.5,129.68 L376.5,192.68 L439.5,192.68 L439.5,129.68 Z M503.5,129.68 L440.5,129.68 L440.5,192.68 L503.5,192.68 L503.5,129.68 Z M567.5,129.68 L504.5,129.68 L504.5,192.68 L567.5,192.68 L567.5,129.68 Z M695.5,129.68 L632.5,129.68 L632.5,192.68 L695.5,192.68 L695.5,129.68 Z M759.5,129.68 L696.5,129.68 L696.5,192.68 L759.5,192.68 L759.5,129.68 Z M823.5,129.68 L760.5,129.68 L760.5,192.68 L823.5,192.68 L823.5,129.68 Z M887.5,129.68 L824.5,129.68 L824.5,192.68 L887.5,192.68 L887.5,129.68 Z M951.5,129.68 L888.5,129.68 L888.5,192.68 L951.5,192.68 L951.5,129.68 Z M1015.5,129.68 L952.5,129.68 L952.5,192.68 L1015.5,192.68 L1015.5,129.68 Z M1079.5,129.68 L1016.5,129.68 L1016.5,192.68 L1079.5,192.68 L1079.5,129.68 Z M1143.5,129.68 L1080.5,129.68 L1080.5,192.68 L1143.5,192.68 L1143.5,129.68 Z M1207.5,129.68 L1144.5,129.68 L1144.5,192.68 L1207.5,192.68 L1207.5,129.68 Z M1271.5,129.68 L1208.5,129.68 L1208.5,192.68 L1271.5,192.68 L1271.5,129.68 Z M1335.5,128.68 L1335.5,65.68 L1272.5,65.68 L1272.5,128.68 L1335.5,128.68 Z M375.5,65.68 L312.5,65.68 L312.5,128.68 L375.5,128.68 L375.5,65.68 Z M183.5,65.68 L120.5,65.68 L120.5,128.68 L183.5,128.68 L183.5,65.68 Z M119.5,65.68 L56.5,65.68 L56.5,128.68 L119.5,128.68 L119.5,65.68 Z M1207.5,65.68 L1144.5,65.68 L1144.5,128.68 L1207.5,128.68 L1207.5,65.68 Z M1079.5,65.68 L1016.5,65.68 L1016.5,128.68 L1079.5,128.68 L1079.5,65.68 Z M951.5,65.68 L888.5,65.68 L888.5,128.68 L951.5,128.68 L951.5,65.68 Z M823.5,65.68 L760.5,65.68 L760.5,128.68 L823.5,128.68 L823.5,65.68 Z M695.5,65.68 L632.5,65.68 L632.5,128.68 L695.5,128.68 L695.5,65.68 Z M567.5,65.68 L504.5,65.68 L504.5,128.68 L567.5,128.68 L567.5,65.68 Z M439.5,65.68 L376.5,65.68 L376.5,128.68 L439.5,128.68 L439.5,65.68 Z M311.5,65.68 L248.5,65.68 L248.5,128.68 L311.5,128.68 L311.5,65.68 Z M247.5,65.68 L184.5,65.68 L184.5,128.68 L247.5,128.68 L247.5,65.68 Z M503.5,65.68 L440.5,65.68 L440.5,128.68 L503.5,128.68 L503.5,65.68 Z M631.5,65.68 L568.5,65.68 L568.5,128.68 L631.5,128.68 L631.5,65.68 Z M759.5,65.68 L696.5,65.68 L696.5,128.68 L759.5,128.68 L759.5,65.68 Z M887.5,65.68 L824.5,65.68 L824.5,128.68 L887.5,128.68 L887.5,65.68 Z M1015.5,65.68 L952.5,65.68 L952.5,128.68 L1015.5,128.68 L1015.5,65.68 Z M1143.5,65.68 L1080.5,65.68 L1080.5,128.68 L1143.5,128.68 L1143.5,65.68 Z M1271.5,65.68 L1208.5,65.68 L1208.5,128.68 L1271.5,128.68 L1271.5,65.68 Z" id="Combined-Shape" fill="url(#linearGradient-1)" fill-rule="nonzero" style="mix-blend-mode: difference;" transform="translate(696.000000, 371.680215) scale(1, -1) translate(-696.000000, -371.680215) "></path>
    </g>
</svg>