<?xml version="1.0" encoding="UTF-8"?>
<svg xmlns="http://www.w3.org/2000/svg" xmlns:xlink="http://www.w3.org/1999/xlink" width="27px" height="30px" viewBox="0 0 27 30" version="1.1">
  <title>insight-icon-2</title>
  <g id="#Attend-Feedback-points-01" stroke="none" stroke-width="1" fill="none" fill-rule="evenodd">
    <g id="insight-icon-2" transform="translate(1.000000, 0.000000)">
      <ellipse id="Oval-Copy-23" fill="#ACCFCB" fill-rule="nonzero" opacity="0" cx="19.6633854" cy="6.12876672" rx="5.19848771" ry="5.33050896"></ellipse>
      <g id="Path" transform="translate(12.515465, 14.476663) scale(-1, 1) rotate(-180.000000) translate(-12.515465, -14.476663) ">
        <path d="M5.4545555,22.5829879 L0,22.5829879 L0,1.87151834 L10.6928243,1.87151834 C11.6995294,1.87151834 12.5154648,1.03370196 12.5154648,0 C12.5154648,1.03370196 13.3313395,1.87151834 14.3381053,1.87151834 L25.0309297,1.87151834 L25.0309297,22.5829879 L19.5763134,22.5829879" stroke="#FFFFFF" stroke-width="1.6376087" stroke-linecap="round" stroke-linejoin="round"></path>
        <line x1="15.2494256" y1="11.3829104" x2="9.78150407" y2="11.3829104" stroke="#FFFFFF" stroke-width="1.6376087" stroke-linecap="round" stroke-linejoin="round"></line>
        <polyline stroke="#FFFFFF" stroke-width="1.6376087" stroke-linecap="round" stroke-linejoin="round" points="10.6928243 20.7114696 12.5154648 18.8399512 14.3381053 20.7114696"></polyline>
        <line x1="12.5448701" y1="11.3538779" x2="12.5448701" y2="18.8399512" stroke="#FFFFFF" stroke-width="1.6376087" stroke-linecap="round" stroke-linejoin="round"></line>
        <path d="M13.4444518,28.0325395 C13.4444518,27.5239888 13.0428921,27.1117525 12.5477127,27.1117525 C12.0525334,27.1117525 11.6509736,27.5239888 11.6509736,28.0325395 C11.6509736,28.5410902 12.0525334,28.9533265 12.5477127,28.9533265 C13.0428921,28.9533265 13.4444518,28.5410902 13.4444518,28.0325395" fill="#FFFFFF" fill-rule="nonzero"></path>
        <path d="M9.82968253,27.6713344 C7.70047389,26.7936546 6.02656084,24.8888233 5.45091022,22.5829879 C5.39440836,22.3590296 5.34884235,22.1307043 5.31421218,21.8992599 C4.82270679,18.6216074 6.40658139,15.6752137 8.91878756,14.2097525 C9.46618726,13.8904091 9.78150407,13.2721842 9.78150407,12.6258865 L9.78150407,9.48235957 C9.78150407,8.44865761 10.5974395,7.61084123 11.6041446,7.61084123 L13.4267851,7.61084123 C14.4334902,7.61084123 15.2494256,8.44865761 15.2494256,9.48235957 L15.2494256,12.6246389 C15.2494256,13.2678173 15.5592745,13.8879137 16.104244,14.2048242 C18.3132843,15.489871 19.8060269,17.9185404 19.8060269,20.7114696 C19.8060269,21.3577049 19.7264382,21.9847259 19.5763742,22.5829879 C18.9931292,24.9101586 17.3472241,26.799394 15.2016117,27.6730811" stroke="#FFFFFF" stroke-width="1.6376087" stroke-linecap="round" stroke-linejoin="round"></path>
      </g>
    </g>
  </g>
</svg>
